<svg width="17" height="18" viewBox="0 0 17 18" fill="none" xmlns="http://www.w3.org/2000/svg">
<g id="_Indicator">
<path id="Star 1" d="M7.18379 3.99431C7.42924 3.12721 8.65826 3.12721 8.90371 3.99431L9.68232 6.74494C9.76685 7.04356 10.0002 7.27695 10.2989 7.36148L13.0495 8.14009C13.9166 8.38553 13.9166 9.61456 13.0495 9.86001L10.2989 10.6386C10.0002 10.7231 9.76685 10.9565 9.68232 11.2552L8.90371 14.0058C8.65826 14.8729 7.42924 14.8729 7.18379 14.0058L6.40518 11.2552C6.32065 10.9565 6.08726 10.7231 5.78864 10.6386L3.03801 9.86001C2.17091 9.61456 2.17092 8.38553 3.03801 8.14009L5.78864 7.36148C6.08726 7.27695 6.32065 7.04356 6.40518 6.74494L7.18379 3.99431Z" fill="white"/>
</g>
</svg>
